<?xml version="1.0" encoding="UTF-8"?>
<svg width="50px" height="50px" viewBox="0 0 50 50" version="1.1" xmlns="http://www.w3.org/2000/svg" xmlns:xlink="http://www.w3.org/1999/xlink">
    <!-- Generator: Sketch 48.2 (47327) - http://www.bohemiancoding.com/sketch -->
    <title>Shape</title>
    <desc>Created with Sketch.</desc>
    <defs></defs>
    <g id="Page-1" stroke="none" stroke-width="1" fill="none" fill-rule="evenodd">
        <g id="cross" transform="translate(-24.000000, -24.000000)" fill="#000000" fill-rule="nonzero">
            <g id="Group">
                <g id="Shape">
                    <path d="M46,46 L46,17.8873016 C46,16.2304474 47.3431458,14.8873016 49,14.8873016 C50.6568542,14.8873016 52,16.2304474 52,17.8873016 L52,46 L80.1126984,46 C81.7695526,46 83.1126984,47.3431458 83.1126984,49 C83.1126984,50.6568542 81.7695526,52 80.1126984,52 L52,52 L52,80.1126984 C52,81.7695526 50.6568542,83.1126984 49,83.1126984 C47.3431458,83.1126984 46,81.7695526 46,80.1126984 L46,52 L17.8873016,52 C16.2304474,52 14.8873016,50.6568542 14.8873016,49 C14.8873016,47.3431458 16.2304474,46 17.8873016,46 L46,46 Z" transform="translate(49.000000, 49.000000) rotate(45.000000) translate(-49.000000, -49.000000) "></path>
                </g>
            </g>
        </g>
    </g>
</svg>